<?xml version="1.0" encoding="UTF-8"?>
<!DOCTYPE svg PUBLIC "-//W3C//DTD SVG 1.1//EN" "http://www.w3.org/Graphics/SVG/1.1/DTD/svg11.dtd">
<svg xmlns="http://www.w3.org/2000/svg" version="1.1" width="420px" height="420px" style="shape-rendering:geometricPrecision; text-rendering:geometricPrecision; image-rendering:optimizeQuality; fill-rule:evenodd; clip-rule:evenodd" xmlns:xlink="http://www.w3.org/1999/xlink">
<g><path style="opacity:0.011" fill="#fd0001" d="M 296.5,48.5 C 315.84,45.6938 332.007,51.3604 345,65.5C 353.636,79.3622 354.802,93.8622 348.5,109C 342.683,123.135 336.183,136.968 329,150.5C 321.382,165.394 309.548,175.228 293.5,180C 292.903,181.062 292.57,182.228 292.5,183.5C 297.141,200.56 298.641,217.893 297,235.5C 297.414,235.957 297.914,236.291 298.5,236.5C 318.403,230.769 335.236,235.436 349,250.5C 357.813,264.215 358.813,278.548 352,293.5C 343.702,312.097 334.369,330.097 324,347.5C 312.912,361.213 298.412,368.047 280.5,368C 227.5,368.667 174.5,368.667 121.5,368C 105.406,368.529 91.5729,363.362 80,352.5C 75.9456,347.058 72.9456,341.058 71,334.5C 69.319,316.425 66.9857,298.425 64,280.5C 60.9042,231.993 57.7376,183.493 54.5,135C 53.4202,118.39 56.9202,102.89 65,88.5C 73.9635,77.7616 85.4635,71.2616 99.5,69C 149.553,64.1052 199.553,58.7719 249.5,53C 265.454,52.9595 281.121,51.4595 296.5,48.5 Z"/></g>
<g><path style="opacity:0.777" fill="#ff020e" d="M 295.5,58.5 C 302,58.5208 308.5,58.5208 315,58.5C 333.695,63.6451 342.861,75.6451 342.5,94.5C 336.365,114.836 327.032,134.836 314.5,154.5C 310.493,158.174 306.493,161.841 302.5,165.5C 294.814,168.786 287.147,171.286 279.5,173C 278.313,174.019 277.313,175.186 276.5,176.5C 280.705,184.037 284.038,191.537 286.5,199C 286.043,199.414 285.709,199.914 285.5,200.5C 286.167,202.833 286.833,205.167 287.5,207.5C 286.167,212.833 286.167,218.167 287.5,223.5C 285.37,231.246 283.87,238.579 283,245.5C 283.739,246.574 284.739,247.241 286,247.5C 288.185,246.242 290.352,246.242 292.5,247.5C 297.212,246.578 301.879,245.578 306.5,244.5C 311.364,244.53 316.197,244.53 321,244.5C 342.639,251.642 350.139,265.476 343.5,286C 343.833,286.333 344.167,286.667 344.5,287C 335.737,306.029 326.07,324.529 315.5,342.5C 312.833,344.5 310.5,346.833 308.5,349.5C 303.565,351.877 299.065,354.21 295,356.5C 294.667,356.167 294.333,355.833 294,355.5C 290.634,356.374 287.3,357.374 284,358.5C 283.107,357.919 282.107,357.585 281,357.5C 273.943,358.094 266.943,358.76 260,359.5C 219.983,359.482 179.983,359.482 140,359.5C 129.179,358.686 118.346,357.519 107.5,356C 101.471,354.483 95.8041,352.15 90.5,349C 84.8891,342.79 81.5557,335.79 80.5,328C 79.8944,322.55 78.8944,317.05 77.5,311.5C 77.8333,310.833 78.1667,310.167 78.5,309.5C 77.0947,303.375 75.7614,297.209 74.5,291C 74.9574,290.586 75.2907,290.086 75.5,289.5C 74.8333,286.833 74.1667,284.167 73.5,281.5C 73.8333,280.833 74.1667,280.167 74.5,279.5C 73.1647,274.844 72.8314,270.177 73.5,265.5C 72.8119,255.863 71.8119,246.196 70.5,236.5C 71.2784,230.816 70.9451,225.15 69.5,219.5C 70.2513,214.484 69.918,209.484 68.5,204.5C 69.3507,199.942 69.0174,195.442 67.5,191C 68.0814,190.107 68.4148,189.107 68.5,188C 67.1582,175.287 65.8249,162.62 64.5,150C 64.8291,140.316 64.8291,130.65 64.5,121C 65.2494,110.917 68.5827,101.417 74.5,92.5C 83.8942,83.7765 94.5609,79.1099 106.5,78.5C 113.148,77.4894 119.982,76.4894 127,75.5C 131.326,76.1255 135.659,75.7921 140,74.5C 140.772,74.6448 141.439,74.9781 142,75.5C 144.461,74.7819 146.961,74.1153 149.5,73.5C 152.485,74.1134 155.485,73.7801 158.5,72.5C 159.167,72.8333 159.833,73.1667 160.5,73.5C 169.702,71.9928 178.869,70.6595 188,69.5C 193.502,69.6422 199.002,69.6422 204.5,69.5C 216.233,67.9557 228.066,65.9557 240,63.5C 240.561,64.0219 241.228,64.3552 242,64.5C 254.73,63.3505 267.396,62.0172 280,60.5C 280.561,61.0219 281.228,61.3552 282,61.5C 286.705,60.2773 291.205,59.2773 295.5,58.5 Z"/></g>
<g><path style="opacity:1" fill="#fffdfd" d="M 283.5,101.5 C 290.514,102.005 293.68,105.672 293,112.5C 288.576,123.855 282.742,134.355 275.5,144C 267.911,145.231 260.244,145.897 252.5,146C 224.808,146.081 197.141,146.748 169.5,148C 163.647,149.505 160.48,153.339 160,159.5C 159.176,169.212 159.509,178.879 161,188.5C 162.105,191.937 164.272,194.437 167.5,196C 192.805,197.933 218.139,199.599 243.5,201C 248.409,203.484 250.409,207.484 249.5,213C 249.908,220.846 246.241,225.513 238.5,227C 220.167,227.333 201.833,227.667 183.5,228C 176.847,227.962 170.513,229.295 164.5,232C 162.128,236.174 160.628,240.674 160,245.5C 159.333,256.5 159.333,267.5 160,278.5C 158.517,291.354 164.017,296.521 176.5,294C 214.505,287.498 252.505,280.998 290.5,274.5C 291.442,274.608 292.275,274.941 293,275.5C 292.704,289.936 287.537,302.436 277.5,313C 267.893,314.225 258.226,314.892 248.5,315C 211.167,315.667 173.833,315.667 136.5,315C 131.47,314.552 126.47,313.886 121.5,313C 119.622,311.457 118.122,309.624 117,307.5C 112.657,251.038 108.823,194.538 105.5,138C 105.245,132.956 106.079,128.123 108,123.5C 109.419,122.54 110.919,121.707 112.5,121C 162.437,115.14 212.437,109.806 262.5,105C 269.664,103.956 276.664,102.789 283.5,101.5 Z"/></g>
</svg>
